# xmcd
# 
# Track frame offsets:
#     150
#     23997
#     37617
#     53747
#     70477
#     87307
#     103135
#     118485
#     139117
#     153292
#     180075
#     203112
#     234817
#     272510
# 
# Disc length: 3941
# 
# Revision: 2
# Processed by: cddbd v1.5.2PL0 Copyright (c) Steve Scherf et al.
# Submitted via: BonkEnc v1.0.15
# 
DISCID=b30f630e
DTITLE=Paul F. Cowlan - Paper Devils and Spirits Of Fire
DYEAR=0
DGENRE=Blues
TTITLE0=Out In The Open
TTITLE1=Long, Hot Summer
TTITLE2=Venus In Furs
TTITLE3=Paper Devils And Spirits Of Fire
TTITLE4=Dangerous Age
TTITLE5=Magpies
TTITLE6=After The Show
TTITLE7=A Transylvanian Liebestod
TTITLE8=One Of Those Days
TTITLE9=The Mysterious Case Of Sherlock Holmes
TTITLE10=Claptrap Rap
TTITLE11=Oddsock Blues
TTITLE12=Hot Robin Or The Sherwood Forest Fitness Freak-Out
TTITLE13=The English Blues
EXTD=
EXTT0=
EXTT1=
EXTT2=
EXTT3=
EXTT4=
EXTT5=
EXTT6=
EXTT7=
EXTT8=
EXTT9=
EXTT10=
EXTT11=
EXTT12=
EXTT13=
PLAYORDER=
